<svg width="25" height="24" viewBox="0 0 25 24" fill="none" xmlns="http://www.w3.org/2000/svg">
<rect width="25" height="24" fill="#1E1E1E"/>
<g id="Select service - Error" clip-path="url(#clip0_0_1)">
<rect width="1440" height="1024" transform="translate(-260 -262)" fill="white"/>
<rect id="Rectangle" x="-260" y="-262" width="1440" height="1024" fill="url(#paint0_linear_0_1)"/>
<g id="header-bg-shape">
<g id="Header-shape-1">
<g id="Group" opacity="0.1">
<g id="path-7-link">
<path id="path-7" fill-rule="evenodd" clip-rule="evenodd" d="M-422.985 133.486L57.2363 -41.3001C95.0422 -55.0603 134.124 -57.7646 170.96 -51.0551C207.795 -44.3456 242.384 -28.2223 271.202 -4.32745C300.021 19.5674 323.07 51.2339 336.827 89.0297C350.584 126.826 353.282 165.899 346.564 202.728C339.847 239.557 323.715 274.141 299.81 302.958C275.905 331.775 244.228 354.825 206.422 368.586L-273.799 543.372C-311.605 557.132 -350.687 559.836 -387.522 553.127C-424.357 546.417 -458.946 530.294 -487.765 506.399C-516.584 482.504 -539.633 450.838 -553.389 413.042C-567.146 375.246 -569.844 336.172 -563.127 299.344C-556.41 262.515 -540.277 227.93 -516.372 199.113C-492.468 170.296 -460.791 147.246 -422.985 133.486Z" fill="black"/>
</g>
<g id="path-7-link_2">
<path id="path-7_2" fill-rule="evenodd" clip-rule="evenodd" d="M-422.985 133.486L57.2363 -41.3001C95.0422 -55.0603 134.124 -57.7646 170.96 -51.0551C207.795 -44.3456 242.384 -28.2223 271.202 -4.32745C300.021 19.5674 323.07 51.2339 336.827 89.0297C350.584 126.826 353.282 165.899 346.564 202.728C339.847 239.557 323.715 274.141 299.81 302.958C275.905 331.775 244.228 354.825 206.422 368.586L-273.799 543.372C-311.605 557.132 -350.687 559.836 -387.522 553.127C-424.357 546.417 -458.946 530.294 -487.765 506.399C-516.584 482.504 -539.633 450.838 -553.389 413.042C-567.146 375.246 -569.844 336.172 -563.127 299.344C-556.41 262.515 -540.277 227.93 -516.372 199.113C-492.468 170.296 -460.791 147.246 -422.985 133.486Z" fill="url(#paint1_linear_0_1)"/>
</g>
</g>
</g>
</g>
<g id="Group 13">
<g id="Group 6">
<g id="Group 5" clip-path="url(#clip1_0_1)">
<rect id="Rectangle_2" x="-30" y="-30" width="980" height="663" rx="2" fill="#F5F7FA"/>
<g id="Container / Radius / 4pt / All side  Copy 3" clip-path="url(#clip2_0_1)">
<path id="Back layer - Style &#240;&#159;&#140;&#136;" fill-rule="evenodd" clip-rule="evenodd" d="M-30 -26.8C-30 -27.9201 -30 -28.4802 -29.782 -28.908C-29.5903 -29.2843 -29.2843 -29.5903 -28.908 -29.782C-28.4802 -30 -27.9201 -30 -26.8 -30H200V526.8C200 527.92 200 528.48 199.782 528.908C199.59 529.284 199.284 529.59 198.908 529.782C198.48 530 197.92 530 196.8 530H-26.8C-27.9201 530 -28.4802 530 -28.908 529.782C-29.2843 529.59 -29.5903 529.284 -29.782 528.908C-30 528.48 -30 527.92 -30 526.8V-26.8Z" fill="#292D32"/>
<mask id="mask0_0_1" style="mask-type:luminance" maskUnits="userSpaceOnUse" x="-30" y="-30" width="230" height="560">
<path id="Back layer - Style &#240;&#159;&#140;&#136;_2" fill-rule="evenodd" clip-rule="evenodd" d="M-30 -26.8C-30 -27.9201 -30 -28.4802 -29.782 -28.908C-29.5903 -29.2843 -29.2843 -29.5903 -28.908 -29.782C-28.4802 -30 -27.9201 -30 -26.8 -30H200V526.8C200 527.92 200 528.48 199.782 528.908C199.59 529.284 199.284 529.59 198.908 529.782C198.48 530 197.92 530 196.8 530H-26.8C-27.9201 530 -28.4802 530 -28.908 529.782C-29.2843 529.59 -29.5903 529.284 -29.782 528.908C-30 528.48 -30 527.92 -30 526.8V-26.8Z" fill="white"/>
</mask>
<g mask="url(#mask0_0_1)">
</g>
</g>
<g id="Group 11">
<g id="Group 9">
<circle id="Oval" cx="12" cy="12" r="12" fill="#6C70DC"/>
<path id="Path" fill-rule="evenodd" clip-rule="evenodd" d="M16.6242 8.45643L16.3564 8.24248C15.912 7.88725 15.2441 7.92685 14.8517 8.33156L10.3723 12.9509L9.02021 11.8678C8.57621 11.5122 7.90821 11.551 7.51534 11.9553L7.27859 12.1989C7.08659 12.3964 6.98691 12.6569 7.00138 12.9229C7.016 13.1889 7.14356 13.4385 7.35621 13.617L9.83469 15.7279C10.0493 15.9154 10.3369 16.0131 10.6308 15.9986C10.9247 15.9841 11.1996 15.8585 11.3916 15.651L16.7388 9.87248C16.9256 9.67059 17.0185 9.40797 16.9969 9.14244C16.9754 8.87671 16.8414 8.62999 16.6242 8.45643Z" fill="white"/>
</g>
</g>
</g>
</g>
</g>
</g>
<defs>
<linearGradient id="paint0_linear_0_1" x1="-987.2" y1="260.24" x2="2.58796" y2="1638.48" gradientUnits="userSpaceOnUse">
<stop stop-color="#8E53E4"/>
<stop offset="1" stop-color="#4B22B9"/>
</linearGradient>
<linearGradient id="paint1_linear_0_1" x1="340.867" y1="-127.052" x2="-245.535" y2="374.823" gradientUnits="userSpaceOnUse">
<stop stop-color="#7E77FF"/>
<stop offset="1" stop-color="white" stop-opacity="0.1"/>
</linearGradient>
<clipPath id="clip0_0_1">
<rect width="1440" height="1024" fill="white" transform="translate(-260 -262)"/>
</clipPath>
<clipPath id="clip1_0_1">
<rect width="980" height="560" fill="white" transform="translate(-30 -30)"/>
</clipPath>
<clipPath id="clip2_0_1">
<rect width="230" height="560" fill="white" transform="translate(-30 -30)"/>
</clipPath>
</defs>
</svg>
